<mxfile host="Electron" modified="2023-08-03T12:25:36.996Z" agent="Mozilla/5.0 (Macintosh; Intel Mac OS X 10_15_7) AppleWebKit/537.36 (KHTML, like Gecko) draw.io/21.6.5 Chrome/114.0.5735.243 Electron/25.3.1 Safari/537.36" etag="ODVTQzyFMMQBhZ__QAza" version="21.6.5" type="device">
  <diagram name="第 1 页" id="Ri7brXtQUp4n80jg9bQs">
    <mxGraphModel dx="873" dy="470" grid="1" gridSize="10" guides="1" tooltips="1" connect="1" arrows="1" fold="1" page="1" pageScale="1" pageWidth="827" pageHeight="1169" math="0" shadow="0">
      <root>
        <mxCell id="0" />
        <mxCell id="1" parent="0" />
        <mxCell id="2etgVjRbD-S0sxs6R8Zo-4" style="edgeStyle=orthogonalEdgeStyle;rounded=0;orthogonalLoop=1;jettySize=auto;html=1;entryX=0;entryY=0.5;entryDx=0;entryDy=0;" edge="1" parent="1" source="2etgVjRbD-S0sxs6R8Zo-1" target="2etgVjRbD-S0sxs6R8Zo-2">
          <mxGeometry relative="1" as="geometry" />
        </mxCell>
        <mxCell id="2etgVjRbD-S0sxs6R8Zo-7" value="ORM" style="edgeLabel;html=1;align=center;verticalAlign=middle;resizable=0;points=[];" vertex="1" connectable="0" parent="2etgVjRbD-S0sxs6R8Zo-4">
          <mxGeometry x="-0.0071" relative="1" as="geometry">
            <mxPoint as="offset" />
          </mxGeometry>
        </mxCell>
        <mxCell id="2etgVjRbD-S0sxs6R8Zo-1" value="Python 程式碼" style="rounded=1;whiteSpace=wrap;html=1;" vertex="1" parent="1">
          <mxGeometry x="200" y="240" width="90" height="50" as="geometry" />
        </mxCell>
        <mxCell id="2etgVjRbD-S0sxs6R8Zo-6" style="edgeStyle=orthogonalEdgeStyle;rounded=0;orthogonalLoop=1;jettySize=auto;html=1;entryX=0;entryY=0.5;entryDx=0;entryDy=0;" edge="1" parent="1" source="2etgVjRbD-S0sxs6R8Zo-2" target="2etgVjRbD-S0sxs6R8Zo-3">
          <mxGeometry relative="1" as="geometry" />
        </mxCell>
        <mxCell id="2etgVjRbD-S0sxs6R8Zo-9" value="pymysql" style="edgeLabel;html=1;align=center;verticalAlign=middle;resizable=0;points=[];" vertex="1" connectable="0" parent="2etgVjRbD-S0sxs6R8Zo-6">
          <mxGeometry x="0.0017" y="2" relative="1" as="geometry">
            <mxPoint as="offset" />
          </mxGeometry>
        </mxCell>
        <mxCell id="2etgVjRbD-S0sxs6R8Zo-2" value="SQL 語法" style="rounded=1;whiteSpace=wrap;html=1;" vertex="1" parent="1">
          <mxGeometry x="368" y="240" width="90" height="50" as="geometry" />
        </mxCell>
        <mxCell id="2etgVjRbD-S0sxs6R8Zo-3" value="資料庫" style="rounded=1;whiteSpace=wrap;html=1;" vertex="1" parent="1">
          <mxGeometry x="540" y="240" width="90" height="50" as="geometry" />
        </mxCell>
        <mxCell id="2etgVjRbD-S0sxs6R8Zo-11" value="" style="endArrow=classic;html=1;rounded=0;exitX=0.5;exitY=1;exitDx=0;exitDy=0;entryX=0.5;entryY=1;entryDx=0;entryDy=0;" edge="1" parent="1" source="2etgVjRbD-S0sxs6R8Zo-3" target="2etgVjRbD-S0sxs6R8Zo-1">
          <mxGeometry width="50" height="50" relative="1" as="geometry">
            <mxPoint x="500" y="440" as="sourcePoint" />
            <mxPoint x="550" y="390" as="targetPoint" />
            <Array as="points">
              <mxPoint x="585" y="320" />
              <mxPoint x="245" y="320" />
            </Array>
          </mxGeometry>
        </mxCell>
        <mxCell id="2etgVjRbD-S0sxs6R8Zo-12" value="pymysql + ORM" style="edgeLabel;html=1;align=center;verticalAlign=middle;resizable=0;points=[];" vertex="1" connectable="0" parent="2etgVjRbD-S0sxs6R8Zo-11">
          <mxGeometry x="0.0003" relative="1" as="geometry">
            <mxPoint as="offset" />
          </mxGeometry>
        </mxCell>
      </root>
    </mxGraphModel>
  </diagram>
</mxfile>
